<?xml version="1.0" encoding="UTF-8" standalone="no"?>
<!-- Created with Inkscape (http://www.inkscape.org/) -->

<svg
   width="172.27371mm"
   height="161.09445mm"
   viewBox="0 0 651.11325 608.86092"
   version="1.1"
   id="svg1"
   inkscape:version="1.3.2 (091e20e, 2023-11-25, custom)"
   sodipodi:docname="logo blanco.svg"
   inkscape:export-filename="logo Gardens.svg"
   inkscape:export-xdpi="96"
   inkscape:export-ydpi="96"
   xmlns:inkscape="http://www.inkscape.org/namespaces/inkscape"
   xmlns:sodipodi="http://sodipodi.sourceforge.net/DTD/sodipodi-0.dtd"
   xmlns="http://www.w3.org/2000/svg"
   xmlns:svg="http://www.w3.org/2000/svg">
  <sodipodi:namedview
     id="namedview1"
     pagecolor="#ffffff"
     bordercolor="#000000"
     borderopacity="0.25"
     inkscape:showpageshadow="2"
     inkscape:pageopacity="0.0"
     inkscape:pagecheckerboard="0"
     inkscape:deskcolor="#d1d1d1"
     inkscape:document-units="px"
     inkscape:zoom="0.50000001"
     inkscape:cx="63.999998"
     inkscape:cy="330.99999"
     inkscape:window-width="1440"
     inkscape:window-height="837"
     inkscape:window-x="-8"
     inkscape:window-y="-8"
     inkscape:window-maximized="1"
     inkscape:current-layer="layer1" />
  <defs
     id="defs1" />
  <g
     inkscape:label="Capa 1"
     inkscape:groupmode="layer"
     id="layer1"
     transform="translate(-866.41522,-920.00246)">
    <path
       id="path96"
       style="fill:#de6b6b;fill-opacity:1;fill-rule:nonzero;stroke:none;stroke-width:3.72856;stroke-linecap:round;stroke-linejoin:round;stroke-opacity:1;paint-order:stroke fill markers"
       inkscape:label="hojaIzquierda"
       d="m 931.73376,920.00245 a 286.67716,474.72984 22.637258 0 0 -42.83138,120.55265 286.67716,474.72984 22.637258 0 0 124.91762,449.8384 322.27958,536.37956 49.338751 0 1 74.1512,-496.78985 474.72984,286.67716 20.423306 0 0 -38.9139,-22.5861 474.72984,286.67716 20.423306 0 0 -117.32354,-51.0151 z m 520.29134,0 a 286.67716,474.72984 69.576694 0 0 -117.3248,51.0151 286.67716,474.72984 69.576694 0 0 -35.0092,20.3851 536.37956,322.27958 40.661249 0 1 78.0982,496.76035 474.72984,286.67716 67.362742 0 0 117.0672,-447.6079 474.72984,286.67716 67.362742 0 0 -42.8314,-120.55265 z" />
    <path
       id="ellipse64"
       style="fill:#d95858;fill-opacity:1;fill-rule:nonzero;stroke:none;stroke-width:3.72856;stroke-linecap:round;stroke-linejoin:round;stroke-opacity:1;paint-order:stroke fill markers"
       d="m 1194.5948,920.00245 a 286.67716,474.72984 46.106976 0 0 -87.3,93.52085 286.67716,474.72984 46.106976 0 0 -18.2796,494.5465 286.67716,474.72984 46.106976 0 0 68.5484,18.5993 474.72984,286.67716 43.893024 0 0 14.634,1.8998 286.67716,474.72984 46.106976 0 0 22.3972,0.1705 474.72984,286.67716 43.893024 0 0 22.3989,-0.1704 286.67716,474.72984 46.106976 0 0 14.6274,-1.8999 474.72984,286.67716 43.893024 0 0 68.5533,-18.5992 474.72984,286.67716 43.893024 0 0 -18.2795,-494.5466 474.72984,286.67716 43.893024 0 0 -87.3001,-93.52085 z"
       inkscape:label="HojaPrincipal" />
  </g>
</svg>
