<?xml version="1.0" encoding="UTF-8" standalone="no"?>
<!-- Created with Inkscape (http://www.inkscape.org/) -->

<svg
   width="1629.4508mm"
   height="339.58972mm"
   viewBox="0 0 6158.5544 1283.4886"
   version="1.1"
   id="svg1"
   inkscape:version="1.3.2 (091e20e, 2023-11-25, custom)"
   sodipodi:docname="logo Gardens.svg"
   inkscape:export-filename="logo Gardens.png"
   inkscape:export-xdpi="96"
   inkscape:export-ydpi="96"
   xmlns:inkscape="http://www.inkscape.org/namespaces/inkscape"
   xmlns:sodipodi="http://sodipodi.sourceforge.net/DTD/sodipodi-0.dtd"
   xmlns="http://www.w3.org/2000/svg"
   xmlns:svg="http://www.w3.org/2000/svg">
  <sodipodi:namedview
     id="namedview1"
     pagecolor="#ffffff"
     bordercolor="#000000"
     borderopacity="0.25"
     inkscape:showpageshadow="2"
     inkscape:pageopacity="0.0"
     inkscape:pagecheckerboard="0"
     inkscape:deskcolor="#d1d1d1"
     inkscape:document-units="px"
     inkscape:zoom="0.125"
     inkscape:cx="3192"
     inkscape:cy="1076"
     inkscape:window-width="1440"
     inkscape:window-height="837"
     inkscape:window-x="-8"
     inkscape:window-y="-8"
     inkscape:window-maximized="1"
     inkscape:current-layer="layer1" />
  <defs
     id="defs1" />
  <g
     inkscape:label="Capa 1"
     inkscape:groupmode="layer"
     id="layer1"
     transform="translate(-692.86181,-872.1892)">
    <path
       id="path96"
       style="fill:#de6b6b;fill-opacity:1;fill-rule:nonzero;stroke:none;stroke-width:7.98006;stroke-linecap:round;stroke-linejoin:round;stroke-opacity:1;paint-order:stroke fill markers"
       inkscape:label="hojaIzquierda"
       d="M 834.79789,872.18944 A 619.98789,1005.5101 24.020011 0 0 741.7261,1126.3161 619.98789,1005.5101 24.020011 0 0 1013.1699,2074.5826 687.85546,1151.1657 51.151785 0 1 1174.299,1027.3419 1027.9818,606.43496 19.253674 0 0 1089.7399,979.73011 1027.9818,606.43496 19.253674 0 0 834.79789,872.18944 Z m 1130.58391,0 a 606.43496,1027.9818 70.746326 0 0 -254.9445,107.54067 606.43496,1027.9818 70.746326 0 0 -76.0744,42.97169 1151.1657,687.85546 38.848215 0 1 169.7059,1047.1789 1005.5101,619.98789 65.979989 0 0 254.385,-943.5646 1005.5101,619.98789 65.979989 0 0 -93.072,-254.12666 z" />
    <path
       id="ellipse64"
       style="fill:#d95858;fill-opacity:1;fill-rule:nonzero;stroke:none;stroke-width:7.98006;stroke-linecap:round;stroke-linejoin:round;stroke-opacity:1;paint-order:stroke fill markers"
       d="m 1405.9905,872.1892 a 612.90003,1017.1383 47.966855 0 0 -189.7016,197.1437 612.90003,1017.1383 47.966855 0 0 -39.7212,1042.5115 612.90003,1017.1383 47.966855 0 0 148.9543,39.2078 1017.1383,612.90003 42.033145 0 0 31.7996,4.0047 612.90003,1017.1383 47.966855 0 0 48.6689,0.3595 1017.1383,612.90003 42.033145 0 0 48.6723,-0.3592 612.90003,1017.1383 47.966855 0 0 31.785,-4.005 1017.1383,612.90003 42.033145 0 0 148.9653,-39.2075 1017.1383,612.90003 42.033145 0 0 -39.7209,-1042.5118 1017.1383,612.90003 42.033145 0 0 -189.7017,-197.1437 z"
       inkscape:label="HojaPrincipal" />
    <text
       xml:space="preserve"
       style="font-style:normal;font-variant:normal;font-weight:normal;font-stretch:normal;font-size:501.17px;font-family:'Copperplate Gothic Bold';-inkscape-font-specification:'Copperplate Gothic Bold, Normal';font-variant-ligatures:normal;font-variant-caps:normal;font-variant-numeric:normal;font-variant-east-asian:normal;letter-spacing:7.8308px;fill:#525252;fill-opacity:1;fill-rule:nonzero;stroke:none;stroke-width:9.86681;stroke-linecap:round;stroke-linejoin:round;stroke-opacity:1;paint-order:stroke fill markers"
       x="2290.72"
       y="1508.3052"
       id="text97"><tspan
         sodipodi:role="line"
         id="tspan97"
         x="2290.72"
         y="1508.3052"
         style="font-style:normal;font-variant:normal;font-weight:normal;font-stretch:normal;font-size:501.17px;font-family:'Felix Titling';-inkscape-font-specification:'Felix Titling, Normal';font-variant-ligatures:normal;font-variant-caps:normal;font-variant-numeric:normal;font-variant-east-asian:normal;fill:#525252;fill-opacity:1;stroke-width:9.86681">Chitre Gardens</tspan></text>
    <text
       xml:space="preserve"
       style="font-style:normal;font-variant:normal;font-weight:normal;font-stretch:normal;font-size:167.057px;font-family:'Copperplate Gothic Bold';-inkscape-font-specification:'Copperplate Gothic Bold, Normal';font-variant-ligatures:normal;font-variant-caps:normal;font-variant-numeric:normal;font-variant-east-asian:normal;letter-spacing:7.8308px;fill:#686868;fill-opacity:1;fill-rule:nonzero;stroke:none;stroke-width:9.86681;stroke-linecap:round;stroke-linejoin:round;stroke-opacity:1;paint-order:stroke fill markers"
       x="2491.0989"
       y="1808.7411"
       id="text99"><tspan
         sodipodi:role="line"
         id="tspan99"
         x="2491.0989"
         y="1808.7411"
         style="font-style:normal;font-variant:normal;font-weight:normal;font-stretch:normal;font-size:167.057px;font-family:'Felix Titling';-inkscape-font-specification:'Felix Titling, Normal';font-variant-ligatures:normal;font-variant-caps:normal;font-variant-numeric:normal;font-variant-east-asian:normal;fill:#686868;fill-opacity:1;stroke-width:9.86681">La Belleza de la naturaleza en tu hogar</tspan></text>
  </g>
</svg>
